<?xml version="1.0" encoding="UTF-8"?>
<svg id="Ebene_1" xmlns="http://www.w3.org/2000/svg" version="1.1" viewBox="0 0 3140.5 3188.9">
  <!-- Generator: Adobe Illustrator 29.0.1, SVG Export Plug-In . SVG Version: 2.1.0 Build 192)  -->
  <g id="SvgjsG9050">
    <path d="M306.1,175.3c55.4,0,83,42,83,99.1v607.2h-33.9V299.4c0-61.6-10.7-90.2-53.6-90.2s-53.6,27.7-53.6,90.2v582.2h-33.9V299.4c0-61.6-11.6-90.2-53.6-90.2s-54.5,27.7-54.5,90.2v582.2h-33V180.7h33v21.4c8-13.4,29.5-25,49.1-26.8h9.8c33.9,0,57.2,16.1,70.5,41.1,2.7-4.5,6.3-9.8,9.8-14.3,11.6-14.3,26.8-24.1,51.8-26.8h8.9ZM531.5,175.3c55.4,0,83,41.1,83,99.1v513.5c0,58-27.7,99.1-83,99.1h-8.9c-55.4,0-83-41.1-83-99.1V274.4c0-58,27.7-99.1,83-99.1h8.9ZM527,853.1c42.9,0,53.6-27.7,53.6-90.2v-463.5c0-62.5-10.7-91.1-53.6-91.1s-53.6,28.6-53.6,91.1v463.5c0,62.5,10.7,90.2,53.6,90.2ZM839.9,180.7l-62.5,701h-49.1l-63.4-701h33.9l53.6,600.1,53.6-600.1h33.9,0ZM924.1,881.7h-33.9V180.7h33.9v701ZM924.1,81.6h-33.9v-33.9h33.9v33.9ZM1116.4,762.9v-130.4h33v155.4c0,58-27.7,99.1-82.2,99.1h-9.8c-55.4,0-83-41.1-83-99.1V274.4c0-58,27.7-99.1,83-99.1h9.8c54.5,0,82.2,41.1,82.2,99.1v97.3c0,35.7-2.7,64.3-11.6,85.7-8,21.4-20.5,37.5-65.2,86.6-48.2,53.6-64.3,74.1-64.3,133.1v85.7c0,62.5,10.7,90.2,53.6,90.2s54.5-27.7,54.5-90.2ZM1062,208.4c-42.9,0-53.6,28.6-53.6,91.1v268.8c9.8-12.5,23.2-28.6,42.9-50,49.1-53.6,64.3-75,64.3-133.1.9-13.4.9-85.7.9-85.7,0-62.5-11.6-91.1-54.5-91.1h0ZM1575.2,881.7h-33s-5.4-13.4-5.4-25c-8,11.6-30.4,25-50.9,25h-9.8c-54.5,0-83-41.1-83-99.1v-92c.9-35.7,2.7-63.4,12.5-85.7,8-19.6,23.2-41.1,64.3-86.6,49.1-53.6,65.2-74.1,65.2-133.1v-85.7c0-61.6-11.6-90.2-54.5-90.2s-53.6,27.7-53.6,90.2v130.4h-33.9v-155.4c0-57.2,28.6-99.1,83-99.1h9.8c54.5,0,82.2,42,82.2,99.1v561.7c0,23.2,5.4,38.4,7.1,45.5h0ZM1480.5,847.7c42.9,0,54.5-27.7,54.5-90.2v-262.5c-9.8,11.6-23.2,27.7-42.9,49.1-49.1,53.6-65.2,75-65.2,133.9v79.5c0,62.5,11.6,90.2,53.6,90.2h0ZM1708.5,208.4c-42,0-53.6,28.6-53.6,91.1v85.7c0,58,16.1,79.5,65.2,133.1,41.1,45.5,56.3,66.1,64.3,86.6,9.8,21.4,11.6,49.1,11.6,84.8v98.2c0,58-27.7,99.1-82.2,99.1h-9.8c-54.5,0-83-41.1-83-99.1v-155.4h33.9v130.4c0,62.5,11.6,90.2,53.6,90.2s54.5-27.7,54.5-90.2v-85.7c0-58.9-16.1-79.5-65.2-133.1-43.8-49.1-56.3-65.2-64.3-86.6-8.9-21.4-11.6-50-12.5-85.7v-97.3c0-58,28.6-99.1,83-99.1h9.8c54.5,0,82.2,41.1,82.2,99.1v155.4h-33v-130.4c0-62.5-11.6-91.1-54.5-91.1h0ZM1933.9,208.4c-42,0-53.6,28.6-53.6,91.1v85.7c0,58,16.1,79.5,65.2,133.1,41.1,45.5,56.3,66.1,64.3,86.6,9.8,21.4,11.6,49.1,11.6,84.8v98.2c0,58-27.7,99.1-82.2,99.1h-9.8c-54.5,0-83-41.1-83-99.1v-155.4h33.9v130.4c0,62.5,11.6,90.2,53.6,90.2s54.5-27.7,54.5-90.2v-85.7c0-58.9-16.1-79.5-65.2-133.1-43.8-49.1-56.3-65.2-64.3-86.6-8.9-21.4-11.6-50-12.5-85.7v-97.3c0-58,28.6-99.1,83-99.1h9.8c54.5,0,82.2,41.1,82.2,99.1v155.4h-33v-130.4c0-62.5-11.6-91.1-54.5-91.1h0ZM2105.6,881.7h-33.9V180.7h33.9v701ZM2105.6,81.6h-33.9v-33.9h33.9v33.9ZM2243.5,208.4c-42,0-53.6,28.6-53.6,91.1v85.7c0,58,16.1,79.5,65.2,133.1,41.1,45.5,56.3,66.1,64.3,86.6,9.8,21.4,11.6,49.1,11.6,84.8v98.2c0,58-27.7,99.1-82.2,99.1h-9.8c-54.5,0-83-41.1-83-99.1v-155.4h33.9v130.4c0,62.5,11.6,90.2,53.6,90.2s54.5-27.7,54.5-90.2v-85.7c0-58.9-16.1-79.5-65.2-133.1-43.8-49.1-56.3-65.2-64.3-86.6-8.9-21.4-11.6-50-12.5-85.7v-97.3c0-58,28.6-99.1,83-99.1h9.8c54.5,0,82.2,41.1,82.2,99.1v155.4h-33v-130.4c0-62.5-11.6-91.1-54.5-91.1h0ZM2497.4,180.7v33.9h-58v542.9c0,62.5,10.7,90.2,53.6,90.2h4.5v33.9h-8.9c-55.4,0-83-41.1-83-99.1V214.6h-24.1v-33.9h24.1V47.6h33.9v133.1h58ZM2689.7,762.9v-130.4h33v155.4c0,58-27.7,99.1-82.2,99.1h-9.8c-55.4,0-83-41.1-83-99.1V274.4c0-58,27.7-99.1,83-99.1h9.8c54.5,0,82.2,41.1,82.2,99.1v97.3c0,35.7-2.7,64.3-11.6,85.7-8,21.4-20.5,37.5-65.2,86.6-48.2,53.6-64.3,74.1-64.3,133.1v85.7c0,62.5,10.7,90.2,53.6,90.2s54.5-27.7,54.5-90.2h0ZM2635.2,208.4c-42.9,0-53.6,28.6-53.6,91.1v268.8c9.8-12.5,23.2-28.6,42.9-50,49.1-53.6,64.3-75,64.3-133.1.9-13.4.9-85.7.9-85.7,0-62.5-11.6-91.1-54.5-91.1h0ZM2865,175.3c55.4,0,83,42,83,99.1v607.2h-33.9V299.4c0-61.6-10.7-90.2-53.6-90.2s-53.6,27.7-53.6,90.2v582.2h-33.9V180.7h33.9v21.4c8-13.4,28.6-25,49.1-26.8h8.9ZM3114.5,180.7v33.9h-58v542.9c0,62.5,10.7,90.2,53.6,90.2h4.5v33.9h-8.9c-55.4,0-83-41.1-83-99.1V214.6h-24.1v-33.9h24.1V47.6h33.9v133.1h58Z"/>
  </g>
</svg>