<?xml version="1.0" encoding="UTF-8"?>
<svg id="Ebene_1" xmlns="http://www.w3.org/2000/svg" version="1.1" xmlns:xlink="http://www.w3.org/1999/xlink" viewBox="0 0 3051.4 842.2">
  <!-- Generator: Adobe Illustrator 29.0.1, SVG Export Plug-In . SVG Version: 2.1.0 Build 192)  -->
  <defs>
    <style>
      .st0 {
        fill: url(#Unbenannter_Verlauf_2);
      }
    </style>
    <linearGradient id="Unbenannter_Verlauf_2" data-name="Unbenannter Verlauf 2" x1="1785.8" y1="968.6" x2="1787.4" y2="968.6" gradientTransform="translate(-3373244.8 505442.8) scale(1889 -521.4)" gradientUnits="userSpaceOnUse">
      <stop offset="0" stop-color="#915f26"/>
      <stop offset=".5" stop-color="#f5ed9b"/>
      <stop offset="1" stop-color="#915f26"/>
    </linearGradient>
  </defs>
  <g id="SvgjsG9050">
    <path class="st0" d="M233.7,127.9c55.6,0,83.3,42.2,83.3,99.5v609.1h-34.1V252.4c0-61.9-10.8-90.4-53.8-90.4s-53.8,27.8-53.8,90.4v584h-34.1V252.4c0-61.9-11.6-90.4-53.8-90.4s-54.6,27.8-54.6,90.4v584H-.3V133.2h33.1v21.5c8.1-13.4,29.6-25,49.3-26.8h9.9c34.1,0,57.3,16.2,70.7,41.2,2.7-4.5,6.3-9.9,9.9-14.4,11.6-14.4,26.8-24.2,52-26.8h9.1ZM459.8,127.9c55.6,0,83.3,41.2,83.3,99.5v515.1c0,58.3-27.8,99.5-83.3,99.5h-8.9c-55.6,0-83.3-41.2-83.3-99.5V227.4c0-58.3,27.8-99.5,83.3-99.5h8.9ZM455.3,807.9c43,0,53.8-27.8,53.8-90.4V252.5c0-62.7-10.8-91.4-53.8-91.4s-53.8,28.6-53.8,91.4v465c0,62.7,10.8,90.4,53.8,90.4h0ZM769.1,133.2l-62.7,703.2h-49.3l-63.6-703.2h34.1l53.8,602,53.8-602h34.1-.2,0ZM853.7,836.4h-34.1V133.2h34.1v703.2ZM853.7,33.9h-34.1V-.2h34.1v34.1ZM1046.6,717.2v-130.8h33.1v155.9c0,58.3-27.8,99.5-82.4,99.5h-9.9c-55.6,0-83.3-41.2-83.3-99.5V227.2c0-58.3,27.8-99.5,83.3-99.5h9.9c54.6,0,82.4,41.2,82.4,99.5v97.7c0,35.9-2.7,64.4-11.6,85.9-8.1,21.5-20.7,37.6-65.4,86.9-48.5,53.8-64.4,74.3-64.4,133.4v85.9c0,62.7,10.8,90.4,53.8,90.4s54.6-27.8,54.6-90.4v.2h0ZM992,161c-43,0-53.8,28.6-53.8,91.4v269.6c9.9-12.6,23.3-28.6,43-50.2,49.3-53.8,64.4-75.3,64.4-133.4,1-13.4,1-85.9,1-85.9,0-62.7-11.6-91.4-54.6-91.4h0ZM1506.7,836.4h-33.1s-5.3-13.4-5.3-25c-8.1,11.6-30.5,25-51,25h-9.9c-54.6,0-83.3-41.2-83.3-99.5v-92.2c1-35.9,2.7-63.6,12.6-85.9,8.1-19.7,23.3-41.2,64.4-86.9,49.3-53.8,65.4-74.3,65.4-133.4v-85.9c0-61.9-11.6-90.4-54.6-90.4s-53.8,27.8-53.8,90.4v130.8h-34.1v-155.9c0-57.3,28.6-99.5,83.3-99.5h9.9c54.6,0,82.4,42.2,82.4,99.5v563.5c0,23.3,5.3,38.4,7.1,45.7h0v-.3ZM1411.7,802.4c43,0,54.6-27.8,54.6-90.4v-263.4c-9.9,11.6-23.3,27.8-43,49.3-49.3,53.8-65.4,75.3-65.4,134.4v79.8c0,62.7,11.6,90.4,53.8,90.4h0ZM1640.6,161c-42.2,0-53.8,28.6-53.8,91.4v85.9c0,58.3,16.2,79.8,65.4,133.4,41.2,45.7,56.4,66.2,64.4,86.9,9.9,21.5,11.6,49.3,11.6,85.1v98.5c0,58.3-27.8,99.5-82.4,99.5h-9.9c-54.6,0-83.3-41.2-83.3-99.5v-155.9h34.1v130.8c0,62.7,11.6,90.4,53.8,90.4s54.6-27.8,54.6-90.4v-85.9c0-59.1-16.2-79.8-65.4-133.4-43.9-49.3-56.4-65.4-64.4-86.9-8.9-21.5-11.6-50.2-12.6-85.9v-97.7c0-58.3,28.6-99.5,83.3-99.5h9.9c54.6,0,82.4,41.2,82.4,99.5v155.9h-33.1v-130.8c0-62.7-11.6-91.4-54.6-91.4h0ZM1866.6,161c-42.2,0-53.8,28.6-53.8,91.4v85.9c0,58.3,16.2,79.8,65.4,133.4,41.2,45.7,56.4,66.2,64.4,86.9,9.9,21.5,11.6,49.3,11.6,85.1v98.5c0,58.3-27.8,99.5-82.4,99.5h-9.9c-54.6,0-83.3-41.2-83.3-99.5v-155.9h34.1v130.8c0,62.7,11.6,90.4,53.8,90.4s54.6-27.8,54.6-90.4v-85.9c0-59.1-16.2-79.8-65.4-133.4-43.9-49.3-56.4-65.4-64.4-86.9-8.9-21.5-11.6-50.2-12.6-85.9v-97.7c0-58.3,28.6-99.5,83.3-99.5h9.9c54.6,0,82.4,41.2,82.4,99.5v155.9h-33.1v-130.8c0-62.7-11.6-91.4-54.6-91.4h0ZM2038.9,836.4h-34.1V133.2h34.1v703.2ZM2038.9,33.9h-34.1V-.2h34.1v34.1ZM2177.1,161c-42.2,0-53.8,28.6-53.8,91.4v85.9c0,58.3,16.2,79.8,65.4,133.4,41.2,45.7,56.4,66.2,64.4,86.9,9.9,21.5,11.6,49.3,11.6,85.1v98.5c0,58.3-27.8,99.5-82.4,99.5h-9.9c-54.6,0-83.3-41.2-83.3-99.5v-155.9h34.1v130.8c0,62.7,11.6,90.4,53.8,90.4s54.6-27.8,54.6-90.4v-85.9c0-59.1-16.2-79.8-65.4-133.4-43.9-49.3-56.4-65.4-64.4-86.9-8.9-21.5-11.6-50.2-12.6-85.9v-97.7c0-58.3,28.6-99.5,83.3-99.5h9.9c54.6,0,82.4,41.2,82.4,99.5v155.9h-33.1v-130.8c0-62.7-11.6-91.4-54.6-91.4h0ZM2431.8,133.2v34.1h-58.3v544.6c0,62.7,10.8,90.4,53.8,90.4h4.5v34.1h-8.9c-55.6,0-83.3-41.2-83.3-99.5V167.3h-24.2v-34.1h24.2V-.2h34.1v133.4h58.3-.2ZM2624.9,717.2v-130.8h33.1v155.9c0,58.3-27.8,99.5-82.4,99.5h-9.9c-55.6,0-83.3-41.2-83.3-99.5V227.2c0-58.3,27.8-99.5,83.3-99.5h9.9c54.6,0,82.4,41.2,82.4,99.5v97.7c0,35.9-2.7,64.4-11.6,85.9-8.1,21.5-20.7,37.6-65.4,86.9-48.5,53.8-64.4,74.3-64.4,133.4v85.9c0,62.7,10.8,90.4,53.8,90.4s54.6-27.8,54.6-90.4h0v.2h-.1ZM2570.1,161c-43,0-53.8,28.6-53.8,91.4v269.6c9.9-12.6,23.3-28.6,43-50.2,49.3-53.8,64.4-75.3,64.4-133.4,1-13.4,1-85.9,1-85.9,0-62.7-11.6-91.4-54.6-91.4h0ZM2800.7,127.9c55.6,0,83.3,42.2,83.3,99.5v609.1h-34.1V252.4c0-61.9-10.8-90.4-53.8-90.4s-53.8,27.8-53.8,90.4v584h-34.1V133.2h34.1v21.5c8.1-13.4,28.6-25,49.3-26.8h9.1ZM3050.9,133.2v34.1h-58.3v544.6c0,62.7,10.8,90.4,53.8,90.4h4.5v34.1h-8.9c-55.6,0-83.3-41.2-83.3-99.5V167.3h-24.2v-34.1h24.2V-.2h34.1v133.4h58.3-.2Z"/>
  </g>
</svg>